<?xml version="1.0" encoding="UTF-8"?>
<!DOCTYPE svg PUBLIC "-//W3C//DTD SVG 1.1//EN" "http://www.w3.org/Graphics/SVG/1.1/DTD/svg11.dtd">
<svg xmlns="http://www.w3.org/2000/svg" version="1.1" width="28px" height="20px" style="shape-rendering:geometricPrecision; text-rendering:geometricPrecision; image-rendering:optimizeQuality; fill-rule:evenodd; clip-rule:evenodd" xmlns:xlink="http://www.w3.org/1999/xlink">
<g><path style="opacity:1" fill="#2325ab" d="M 1.5,-0.5 C 4.16667,-0.5 6.83333,-0.5 9.5,-0.5C 9.78448,1.41467 9.45115,3.08134 8.5,4.5C 8.16667,4.5 7.83333,4.5 7.5,4.5C 5.5,2.83333 3.5,1.16667 1.5,-0.5 Z"/></g>
<g><path style="opacity:1" fill="#6e76cb" d="M 9.5,-0.5 C 9.83333,-0.5 10.1667,-0.5 10.5,-0.5C 10.7989,1.60395 10.4656,3.60395 9.5,5.5C 8.89333,5.37642 8.55999,5.04309 8.5,4.5C 9.45115,3.08134 9.78448,1.41467 9.5,-0.5 Z"/></g>
<g><path style="opacity:1" fill="#fcfafb" d="M 10.5,-0.5 C 10.8333,-0.5 11.1667,-0.5 11.5,-0.5C 11.5,2.16667 11.5,4.83333 11.5,7.5C 7.5,7.5 3.5,7.5 -0.5,7.5C -0.5,7.16667 -0.5,6.83333 -0.5,6.5C 1.73535,6.79472 3.73535,6.46138 5.5,5.5C 6.92454,7.03105 7.59121,6.69772 7.5,4.5C 7.83333,4.5 8.16667,4.5 8.5,4.5C 8.55999,5.04309 8.89333,5.37642 9.5,5.5C 10.4656,3.60395 10.7989,1.60395 10.5,-0.5 Z"/></g>
<g><path style="opacity:1" fill="#e5273d" d="M 11.5,-0.5 C 12.8333,-0.5 14.1667,-0.5 15.5,-0.5C 15.5,2.16667 15.5,4.83333 15.5,7.5C 19.5,7.5 23.5,7.5 27.5,7.5C 27.5,8.83333 27.5,10.1667 27.5,11.5C 23.5,11.5 19.5,11.5 15.5,11.5C 15.5,14.1667 15.5,16.8333 15.5,19.5C 14.1667,19.5 12.8333,19.5 11.5,19.5C 11.5,16.8333 11.5,14.1667 11.5,11.5C 7.5,11.5 3.5,11.5 -0.5,11.5C -0.5,10.1667 -0.5,8.83333 -0.5,7.5C 3.5,7.5 7.5,7.5 11.5,7.5C 11.5,4.83333 11.5,2.16667 11.5,-0.5 Z"/></g>
<g><path style="opacity:1" fill="#f9f4f8" d="M 15.5,-0.5 C 15.8333,-0.5 16.1667,-0.5 16.5,-0.5C 16.0254,2.08209 16.6921,4.08209 18.5,5.5C 20.6869,4.24204 23.0202,3.24204 25.5,2.5C 25.1667,3.5 24.5,4.16667 23.5,4.5C 22.7109,4.78281 22.0442,5.28281 21.5,6C 23.4727,6.49546 25.4727,6.66212 27.5,6.5C 27.5,6.83333 27.5,7.16667 27.5,7.5C 23.5,7.5 19.5,7.5 15.5,7.5C 15.5,4.83333 15.5,2.16667 15.5,-0.5 Z"/></g>
<g><path style="opacity:1" fill="#6c73c9" d="M 16.5,-0.5 C 16.8333,-0.5 17.1667,-0.5 17.5,-0.5C 17.2155,1.41467 17.5489,3.08134 18.5,4.5C 18.5,4.83333 18.5,5.16667 18.5,5.5C 16.6921,4.08209 16.0254,2.08209 16.5,-0.5 Z"/></g>
<g><path style="opacity:1" fill="#191fa9" d="M 17.5,-0.5 C 19.8333,-0.5 22.1667,-0.5 24.5,-0.5C 22.9095,1.63265 20.9095,3.29931 18.5,4.5C 17.5489,3.08134 17.2155,1.41467 17.5,-0.5 Z"/></g>
<g><path style="opacity:1" fill="#e2abbe" d="M -0.5,-0.5 C 0.166667,-0.5 0.833333,-0.5 1.5,-0.5C 3.5,1.16667 5.5,2.83333 7.5,4.5C 7.59121,6.69772 6.92454,7.03105 5.5,5.5C 3.4832,4.47061 1.4832,3.47061 -0.5,2.5C -0.5,1.5 -0.5,0.5 -0.5,-0.5 Z"/></g>
<g><path style="opacity:1" fill="#3434b1" d="M -0.5,2.5 C 1.4832,3.47061 3.4832,4.47061 5.5,5.5C 3.73535,6.46138 1.73535,6.79472 -0.5,6.5C -0.5,5.16667 -0.5,3.83333 -0.5,2.5 Z"/></g>
<g><path style="opacity:1" fill="#131ca8" d="M 25.5,2.5 C 26.1667,2.5 26.8333,2.5 27.5,2.5C 27.5,3.5 27.5,4.5 27.5,5.5C 25.901,5.76781 24.5676,5.43448 23.5,4.5C 24.5,4.16667 25.1667,3.5 25.5,2.5 Z"/></g>
<g><path style="opacity:1" fill="#e592a1" d="M 24.5,-0.5 C 25.5,-0.5 26.5,-0.5 27.5,-0.5C 27.5,0.5 27.5,1.5 27.5,2.5C 26.8333,2.5 26.1667,2.5 25.5,2.5C 23.0202,3.24204 20.6869,4.24204 18.5,5.5C 18.5,5.16667 18.5,4.83333 18.5,4.5C 20.9095,3.29931 22.9095,1.63265 24.5,-0.5 Z"/></g>
<g><path style="opacity:1" fill="#636cc7" d="M 23.5,4.5 C 24.5676,5.43448 25.901,5.76781 27.5,5.5C 27.5,5.83333 27.5,6.16667 27.5,6.5C 25.4727,6.66212 23.4727,6.49546 21.5,6C 22.0442,5.28281 22.7109,4.78281 23.5,4.5 Z"/></g>
<g><path style="opacity:1" fill="#f8f5f9" d="M -0.5,12.5 C -0.5,12.1667 -0.5,11.8333 -0.5,11.5C 3.5,11.5 7.5,11.5 11.5,11.5C 11.5,14.1667 11.5,16.8333 11.5,19.5C 11.1667,19.5 10.8333,19.5 10.5,19.5C 10.7947,17.2646 10.4614,15.2646 9.5,13.5C 9.44001,12.9569 9.10667,12.6236 8.5,12.5C 5.64339,14.7583 2.64339,16.7583 -0.5,18.5C -0.5,17.8333 -0.5,17.1667 -0.5,16.5C 1.06181,16.2671 2.39514,15.6005 3.5,14.5C 4.28913,14.2172 4.9558,13.7172 5.5,13C 3.5273,12.5045 1.5273,12.3379 -0.5,12.5 Z"/></g>
<g><path style="opacity:1" fill="#fcfbfc" d="M 27.5,11.5 C 27.5,11.8333 27.5,12.1667 27.5,12.5C 25.2646,12.2053 23.2646,12.5386 21.5,13.5C 20.0755,11.9689 19.4088,12.3023 19.5,14.5C 19.1667,14.5 18.8333,14.5 18.5,14.5C 18.44,13.9569 18.1067,13.6236 17.5,13.5C 16.5344,15.396 16.2011,17.396 16.5,19.5C 16.1667,19.5 15.8333,19.5 15.5,19.5C 15.5,16.8333 15.5,14.1667 15.5,11.5C 19.5,11.5 23.5,11.5 27.5,11.5 Z"/></g>
<g><path style="opacity:1" fill="#636cc7" d="M -0.5,13.5 C -0.5,13.1667 -0.5,12.8333 -0.5,12.5C 1.5273,12.3379 3.5273,12.5045 5.5,13C 4.9558,13.7172 4.28913,14.2172 3.5,14.5C 2.43236,13.5655 1.09903,13.2322 -0.5,13.5 Z"/></g>
<g><path style="opacity:1" fill="#121ca8" d="M -0.5,13.5 C 1.09903,13.2322 2.43236,13.5655 3.5,14.5C 2.39514,15.6005 1.06181,16.2671 -0.5,16.5C -0.5,15.5 -0.5,14.5 -0.5,13.5 Z"/></g>
<g><path style="opacity:1" fill="#e999a5" d="M 9.5,13.5 C 8.83333,13.5 8.5,13.8333 8.5,14.5C 5.9528,15.9336 3.61947,17.6002 1.5,19.5C 0.833333,19.5 0.166667,19.5 -0.5,19.5C -0.5,19.1667 -0.5,18.8333 -0.5,18.5C 2.64339,16.7583 5.64339,14.7583 8.5,12.5C 9.10667,12.6236 9.44001,12.9569 9.5,13.5 Z"/></g>
<g><path style="opacity:1" fill="#e5acbc" d="M 21.5,13.5 C 23.5168,14.5294 25.5168,15.5294 27.5,16.5C 27.5,17.5 27.5,18.5 27.5,19.5C 26.8333,19.5 26.1667,19.5 25.5,19.5C 23.5,17.8333 21.5,16.1667 19.5,14.5C 19.4088,12.3023 20.0755,11.9689 21.5,13.5 Z"/></g>
<g><path style="opacity:1" fill="#3434b1" d="M 21.5,13.5 C 23.2646,12.5386 25.2646,12.2053 27.5,12.5C 27.5,13.8333 27.5,15.1667 27.5,16.5C 25.5168,15.5294 23.5168,14.5294 21.5,13.5 Z"/></g>
<g><path style="opacity:1" fill="#2123ab" d="M 8.5,14.5 C 9.45115,15.9187 9.78448,17.5853 9.5,19.5C 6.83333,19.5 4.16667,19.5 1.5,19.5C 3.61947,17.6002 5.9528,15.9336 8.5,14.5 Z"/></g>
<g><path style="opacity:1" fill="#6b72c9" d="M 8.5,14.5 C 8.5,13.8333 8.83333,13.5 9.5,13.5C 10.4614,15.2646 10.7947,17.2646 10.5,19.5C 10.1667,19.5 9.83333,19.5 9.5,19.5C 9.78448,17.5853 9.45115,15.9187 8.5,14.5 Z"/></g>
<g><path style="opacity:1" fill="#7178cc" d="M 18.5,14.5 C 17.5489,15.9187 17.2155,17.5853 17.5,19.5C 17.1667,19.5 16.8333,19.5 16.5,19.5C 16.2011,17.396 16.5344,15.396 17.5,13.5C 18.1067,13.6236 18.44,13.9569 18.5,14.5 Z"/></g>
<g><path style="opacity:1" fill="#2325ab" d="M 18.5,14.5 C 18.8333,14.5 19.1667,14.5 19.5,14.5C 21.5,16.1667 23.5,17.8333 25.5,19.5C 22.8333,19.5 20.1667,19.5 17.5,19.5C 17.2155,17.5853 17.5489,15.9187 18.5,14.5 Z"/></g>
</svg>
