<svg width="18" height="12" viewBox="0 0 18 12" fill="none" xmlns="http://www.w3.org/2000/svg">
<path d="M17.1875 1.875C16.9375 1.10417 16.4271 0.59375 15.6562 0.34375C15.1562 0.239583 14.3854 0.15625 13.3438 0.09375C12.3021 0.0520833 11.3333 0.0208333 10.4375 0C9.54167 0 9.0625 0 9 0C8.9375 0 8.45833 0 7.5625 0C6.66667 0.0208333 5.69792 0.0520833 4.65625 0.09375C3.61458 0.15625 2.84375 0.239583 2.34375 0.34375C1.57292 0.59375 1.0625 1.10417 0.8125 1.875C0.708333 2.35417 0.625 2.90625 0.5625 3.53125C0.520833 4.17708 0.489583 4.75 0.46875 5.25C0.46875 5.72917 0.46875 5.97917 0.46875 6C0.46875 6.04167 0.46875 6.30208 0.46875 6.78125C0.489583 7.28125 0.520833 7.84375 0.5625 8.46875C0.625 9.11458 0.708333 9.67708 0.8125 10.1562C1.0625 10.9271 1.57292 11.4271 2.34375 11.6562C2.84375 11.7604 3.61458 11.8438 4.65625 11.9062C5.69792 11.9479 6.66667 11.9792 7.5625 12C8.45833 12 8.9375 12 9 12C9.0625 12 9.54167 12 10.4375 12C11.3333 11.9792 12.3021 11.9479 13.3438 11.9062C14.3854 11.8438 15.1562 11.7604 15.6562 11.6562C16.4271 11.4271 16.9375 10.9271 17.1875 10.1562C17.2917 9.67708 17.375 9.11458 17.4375 8.46875C17.4792 7.84375 17.5104 7.28125 17.5312 6.78125C17.5312 6.30208 17.5312 6.04167 17.5312 6C17.5312 5.97917 17.5312 5.72917 17.5312 5.25C17.5104 4.75 17.4792 4.17708 17.4375 3.53125C17.375 2.90625 17.2917 2.35417 17.1875 1.875ZM7.25 8.5625V3.46875L11.7188 6L7.25 8.5625Z" fill="#EB5757"/>
</svg>
